<svg id="visual" viewBox="0 0 900 600" width="900" height="600" xmlns="http://www.w3.org/2000/svg" xmlns:xlink="http://www.w3.org/1999/xlink" version="1.1"><path d="M0 385L21.5 386.2C43 387.3 86 389.7 128.8 397.3C171.7 405 214.3 418 257.2 432.7C300 447.3 343 463.7 385.8 474.5C428.7 485.3 471.3 490.7 514.2 477.3C557 464 600 432 642.8 416.5C685.7 401 728.3 402 771.2 407C814 412 857 421 878.5 425.5L900 430L900 601L878.5 601C857 601 814 601 771.2 601C728.3 601 685.7 601 642.8 601C600 601 557 601 514.2 601C471.3 601 428.7 601 385.8 601C343 601 300 601 257.2 601C214.3 601 171.7 601 128.8 601C86 601 43 601 21.5 601L0 601Z" fill="#E71D36" stroke-linecap="round" stroke-linejoin="miter"></path></svg>