<svg xmlns="http://www.w3.org/2000/svg" version="1.1" xmlns:xlink="http://www.w3.org/1999/xlink" xmlns:svgjs="http://svgjs.dev/svgjs" width="1000" height="623" viewBox="0 0 1000 623"><g transform="matrix(1,0,0,1,-0.6060606060606233,0.2522267206477409)"><svg viewBox="0 0 396 247" data-background-color="#e71d36" preserveAspectRatio="xMidYMid meet" height="623" width="1000" xmlns="http://www.w3.org/2000/svg" xmlns:xlink="http://www.w3.org/1999/xlink"><g id="tight-bounds" transform="matrix(1,0,0,1,0.2400000000000091,-0.09999999999999432)"><svg viewBox="0 0 395.52 247.2" height="247.2" width="395.52"><g><svg></svg></g><g><svg viewBox="0 0 395.52 247.2" height="247.2" width="395.52"><g mask="url(#b5ddb6bf-155d-477e-a018-58607b4d9cea)"><g><path xmlns="http://www.w3.org/2000/svg" d="M68.159 33.756h-29.664v72.966h33.415c12.275 0 21.481-3.637 27.618-10.911 6.137-7.274 9.206-16.139 9.206-26.595v0c0-12.275-3.682-21.254-11.047-26.936-7.41-5.683-17.253-8.524-29.528-8.524zM68.841 138.432h-30.346v75.012h34.778c6.592 0 12.798-0.796 18.617-2.386 5.774-1.591 10.82-3.932 15.139-7.024 4.319-3.046 7.729-6.956 10.229-11.729 2.5-4.774 3.751-10.343 3.751-16.708v0c0-7.047-1.478-12.911-4.433-17.594-2.955-4.637-6.865-8.433-11.729-11.388-4.91-2.955-10.479-5.069-16.707-6.342-6.274-1.227-12.707-1.841-19.299-1.841zM76.342 247.2h-75.353v-247.2h65.465c12.047 0 22.958 1.182 32.733 3.546 9.774 2.409 18.071 6.16 24.89 11.252 6.819 5.137 12.116 11.729 15.889 19.776 3.728 8.092 5.592 17.935 5.592 29.528v0c0 6.365-0.614 12.616-1.841 18.753-1.273 6.137-3.319 11.752-6.137 16.843-2.864 5.137-6.615 9.638-11.252 13.503-4.683 3.864-10.434 6.819-17.253 8.865v0c5.91 1.137 11.775 3.069 17.594 5.796 5.774 2.728 10.934 6.41 15.48 11.047 4.546 4.683 8.251 10.434 11.115 17.253 2.819 6.819 4.228 14.889 4.228 24.209v0c0 11.82-2.273 21.935-6.819 30.346-4.546 8.41-10.57 15.343-18.072 20.799-7.501 5.455-16.139 9.433-25.913 11.933-9.774 2.5-19.89 3.751-30.346 3.751zM276.216 34.778v88.992h33.756c9.092 0 16.707-1.591 22.844-4.773 6.137-3.182 10.956-7.047 14.457-11.593 3.546-4.546 6.046-9.433 7.502-14.661 1.5-5.228 2.25-9.888 2.25-13.98v0c0-4.319-0.75-9.047-2.25-14.184-1.455-5.092-4.001-9.865-7.638-14.321-3.637-4.41-8.479-8.092-14.525-11.047-6.001-2.955-13.434-4.433-22.299-4.433v0zM276.216 247.2h-37.506v-247.2h67.511c12.957 0 24.822 1.705 35.597 5.114 10.82 3.41 20.14 8.479 27.959 15.208 7.865 6.683 13.957 14.843 18.276 24.481 4.319 9.683 6.478 20.776 6.478 33.278v0c0 9.774-1.478 19.48-4.432 29.119-2.955 9.683-7.729 18.321-14.321 25.913-6.592 7.638-15.23 13.843-25.913 18.617-10.684 4.774-23.64 7.16-38.87 7.16v0h-34.779z" fill="#5e1914" fill-rule="nonzero" stroke="none" stroke-width="1" stroke-linecap="butt" stroke-linejoin="miter" stroke-miterlimit="10" stroke-dasharray="" stroke-dashoffset="0" font-family="none" font-weight="none" font-size="none" text-anchor="none" style="mix-blend-mode: normal" data-fill-palette-color="tertiary"></path></g></g><g transform="matrix(1,0,0,1,0,93.59925696594426)"><svg viewBox="0 0 395.52 60.001486068111454" height="60.001486068111454" width="395.52"><g><svg viewBox="0 0 395.52 60.001486068111454" height="60.001486068111454" width="395.52"><g><svg viewBox="0 0 395.52 60.001486068111454" height="60.001486068111454" width="395.52"><g><svg viewBox="0 0 395.52 60.001486068111454" height="60.001486068111454" width="395.52"><g id="textblocktransform"><svg viewBox="0 0 395.52 60.001486068111454" height="60.001486068111454" width="395.52" id="textblock"><g><svg viewBox="0 0 395.52 60.001486068111454" height="60.001486068111454" width="395.52"><g transform="matrix(1,0,0,1,0,0)"><svg width="395.52" viewBox="1.4499998092651367 -41.849998474121094 356.2599792480469 54.89999771118164" height="60.001486068111454" data-palette-color="#ffffff"><path d="M14.3-31.3L9.95-31.3 9.95-20.6 14.85-20.6Q17.55-20.6 18.9-22.2 20.25-23.8 20.25-26.1L20.25-26.1Q20.25-28.8 18.63-30.05 17-31.3 14.3-31.3L14.3-31.3ZM14.4-15.95L9.95-15.95 9.95-4.95 15.05-4.95Q16.5-4.95 17.78-5.3 19.05-5.65 20-6.33 20.95-7 21.5-8.05 22.05-9.1 22.05-10.5L22.05-10.5Q22.05-12.05 21.4-13.08 20.75-14.1 19.68-14.75 18.6-15.4 17.23-15.68 15.85-15.95 14.4-15.95L14.4-15.95ZM15.5 0L4.45 0 4.45-36.25 14.05-36.25Q16.7-36.25 18.85-35.73 21-35.2 22.5-34.08 24-32.95 24.83-31.18 25.65-29.4 25.65-26.85L25.65-26.85Q25.65-25.45 25.38-24.1 25.1-22.75 24.48-21.63 23.85-20.5 22.83-19.65 21.8-18.8 20.3-18.35L20.3-18.35Q21.6-18.1 22.88-17.5 24.15-16.9 25.15-15.88 26.15-14.85 26.78-13.35 27.4-11.85 27.4-9.8L27.4-9.8Q27.4-7.2 26.4-5.35 25.4-3.5 23.75-2.3 22.1-1.1 19.95-0.55 17.8 0 15.5 0L15.5 0ZM31.9 0L31.9-38.85 36.15-38.85 36.15-15.85Q37.25-18.35 39.25-19.88 41.25-21.4 44.4-21.45L44.4-21.45Q47.6-21.5 49.52-19.75 51.45-18 51.55-15.2L51.55-15.2 51.55 0 47.25 0 47.25-13.25Q47.15-14.85 46.15-15.98 45.15-17.1 43-17.2L43-17.2Q41.5-17.2 40.25-16.68 39-16.15 38.1-15.25 37.2-14.35 36.67-13.1 36.15-11.85 36.15-10.35L36.15-10.35 36.15 0 31.9 0ZM55.9-10.25L55.9-10.25Q55.9-12.55 56.77-14.58 57.65-16.6 59.15-18.13 60.65-19.65 62.62-20.55 64.59-21.45 66.84-21.45L66.84-21.45Q68.34-21.45 69.59-21.08 70.84-20.7 71.75-20.15 72.65-19.6 73.2-19 73.75-18.4 73.95-17.95L73.95-17.95 74.15-20.9 78.25-20.9 78.25 0 73.95 0 73.95-2.65Q73.7-2.25 73.15-1.7 72.59-1.15 71.72-0.68 70.84-0.2 69.65 0.15 68.45 0.5 66.9 0.5L66.9 0.5Q64.5 0.5 62.47-0.38 60.45-1.25 59-2.73 57.55-4.2 56.72-6.15 55.9-8.1 55.9-10.25ZM60.2-10.5L60.2-10.5Q60.2-9.05 60.72-7.8 61.25-6.55 62.15-5.65 63.05-4.75 64.3-4.23 65.55-3.7 67.05-3.7L67.05-3.7Q68.55-3.7 69.82-4.23 71.09-4.75 72.02-5.68 72.95-6.6 73.45-7.83 73.95-9.05 73.95-10.5L73.95-10.5Q73.95-11.95 73.45-13.18 72.95-14.4 72.02-15.3 71.09-16.2 69.82-16.73 68.55-17.25 67.05-17.25L67.05-17.25Q65.55-17.25 64.3-16.73 63.05-16.2 62.15-15.3 61.25-14.4 60.72-13.18 60.2-11.95 60.2-10.5ZM92.39 1.25L92.39 1.25Q89.44-4.35 86.87-9.83 84.29-15.3 81.44-20.9L81.44-20.9 86.09-20.9Q87.89-17.35 88.97-15.1 90.04-12.85 90.69-11.35 91.34-9.85 91.69-8.83 92.04-7.8 92.39-6.75L92.39-6.75Q92.79-7.8 93.17-8.83 93.54-9.85 94.17-11.35 94.79-12.85 95.87-15.1 96.94-17.35 98.74-20.9L98.74-20.9 103.39-20.9Q100.54-15.3 97.89-9.83 95.24-4.35 92.39 1.25ZM127.14-20.9L112.24 10.05 107.94 10.05Q108.64 8.6 109.27 7.28 109.89 5.95 110.52 4.58 111.14 3.2 111.79 1.73 112.44 0.25 113.24-1.45L113.24-1.45Q112.09-3.7 110.89-6.18 109.69-8.65 108.49-11.15 107.29-13.65 106.12-16.15 104.94-18.65 103.79-20.9L103.79-20.9 108.44-20.9Q110.24-17.35 111.42-14.9 112.59-12.45 113.37-10.68 114.14-8.9 114.62-7.65 115.09-6.4 115.44-5.35L115.44-5.35Q115.84-6.4 116.32-7.65 116.79-8.9 117.57-10.68 118.34-12.45 119.52-14.9 120.69-17.35 122.49-20.9L122.49-20.9 127.14-20.9ZM128.24-10.25L128.24-10.25Q128.24-12.55 129.11-14.58 129.99-16.6 131.49-18.13 132.99-19.65 134.96-20.55 136.94-21.45 139.19-21.45L139.19-21.45Q140.69-21.45 141.94-21.08 143.19-20.7 144.09-20.15 144.99-19.6 145.54-19 146.09-18.4 146.29-17.95L146.29-17.95 146.49-20.9 150.59-20.9 150.59 0 146.29 0 146.29-2.65Q146.04-2.25 145.49-1.7 144.94-1.15 144.06-0.68 143.19-0.2 141.99 0.15 140.79 0.5 139.24 0.5L139.24 0.5Q136.84 0.5 134.81-0.38 132.79-1.25 131.34-2.73 129.89-4.2 129.06-6.15 128.24-8.1 128.24-10.25ZM132.54-10.5L132.54-10.5Q132.54-9.05 133.06-7.8 133.59-6.55 134.49-5.65 135.39-4.75 136.64-4.23 137.89-3.7 139.39-3.7L139.39-3.7Q140.89-3.7 142.16-4.23 143.44-4.75 144.36-5.68 145.29-6.6 145.79-7.83 146.29-9.05 146.29-10.5L146.29-10.5Q146.29-11.95 145.79-13.18 145.29-14.4 144.36-15.3 143.44-16.2 142.16-16.73 140.89-17.25 139.39-17.25L139.39-17.25Q137.89-17.25 136.64-16.73 135.39-16.2 134.49-15.3 133.59-14.4 133.06-13.18 132.54-11.95 132.54-10.5ZM161.19-23.9L156.78-23.9 156.78-36.5 161.39-36.5 161.19-23.9ZM178.53-19.05L178.53-19.05 176.28-16.05Q176.23-16.1 175.93-16.3 175.63-16.5 175.16-16.7 174.68-16.9 174.06-17.07 173.43-17.25 172.78-17.25L172.78-17.25Q171.93-17.25 171.11-16.85 170.28-16.45 170.28-15.35L170.28-15.35Q170.28-14.4 170.96-13.8 171.63-13.2 172.63-12.73 173.63-12.25 174.81-11.75 175.98-11.25 176.98-10.53 177.98-9.8 178.66-8.72 179.33-7.65 179.33-6L179.33-6Q179.33-3.2 177.41-1.38 175.48 0.45 172.13 0.45L172.13 0.45Q170.18 0.45 168.31-0.23 166.43-0.9 165.28-2.2L165.28-2.2Q165.63-2.55 166.06-3.1 166.48-3.65 166.91-4.15 167.33-4.65 167.61-4.98 167.88-5.3 167.93-5.3L167.93-5.3Q167.93-5.25 168.31-5 168.68-4.75 169.28-4.48 169.88-4.2 170.63-3.98 171.38-3.75 172.13-3.75L172.13-3.75Q173.33-3.75 174.18-4.35 175.03-4.95 175.03-5.95L175.03-5.95Q175.03-6.85 174.36-7.38 173.68-7.9 172.68-8.35 171.68-8.8 170.48-9.28 169.28-9.75 168.28-10.5 167.28-11.25 166.61-12.38 165.93-13.5 165.93-15.3L165.93-15.3Q165.93-17 166.56-18.15 167.18-19.3 168.16-20.03 169.13-20.75 170.33-21.08 171.53-21.4 172.63-21.4L172.63-21.4Q174.08-21.4 175.73-20.8 177.38-20.2 178.53-19.05ZM197.33-31.15L197.33-18.1 202.28-18.1Q204.28-18.1 205.63-18.8 206.98-19.5 207.75-20.5 208.53-21.5 208.85-22.65 209.18-23.8 209.18-24.7L209.18-24.7Q209.18-25.65 208.85-26.78 208.53-27.9 207.73-28.88 206.93-29.85 205.6-30.5 204.28-31.15 202.33-31.15L202.33-31.15 197.33-31.15ZM197.33 0L191.83 0 191.83-36.25 201.73-36.25Q204.58-36.25 206.95-35.5 209.33-34.75 211.05-33.27 212.78-31.8 213.73-29.68 214.68-27.55 214.68-24.8L214.68-24.8Q214.68-22.65 214.03-20.53 213.38-18.4 211.93-16.73 210.48-15.05 208.13-14 205.78-12.95 202.43-12.95L202.43-12.95 197.33-12.95 197.33 0ZM215.08-10.5L215.08-10.5Q215.08-12.75 215.95-14.75 216.83-16.75 218.33-18.23 219.83-19.7 221.85-20.58 223.88-21.45 226.23-21.45L226.23-21.45Q228.58-21.45 230.6-20.58 232.63-19.7 234.1-18.23 235.58-16.75 236.4-14.75 237.23-12.75 237.23-10.5L237.23-10.5Q237.23-8.25 236.4-6.25 235.58-4.25 234.1-2.75 232.63-1.25 230.6-0.38 228.58 0.5 226.18 0.5L226.18 0.5Q223.88 0.5 221.85-0.3 219.83-1.1 218.33-2.55 216.83-4 215.95-6.03 215.08-8.05 215.08-10.5ZM219.33-10.45L219.33-10.45Q219.33-9.05 219.85-7.83 220.38-6.6 221.3-5.68 222.23-4.75 223.45-4.23 224.68-3.7 226.08-3.7L226.08-3.7Q227.48-3.7 228.73-4.23 229.98-4.75 230.9-5.68 231.83-6.6 232.38-7.83 232.93-9.05 232.93-10.45L232.93-10.45Q232.93-11.85 232.38-13.1 231.83-14.35 230.9-15.28 229.98-16.2 228.73-16.73 227.48-17.25 226.08-17.25L226.08-17.25Q224.68-17.25 223.45-16.73 222.23-16.2 221.3-15.28 220.38-14.35 219.85-13.1 219.33-11.85 219.33-10.45ZM254.22-21.45L253.27-15.95Q251.87-15.95 250.57-15.58 249.27-15.2 248.25-14.45 247.22-13.7 246.62-12.58 246.02-11.45 246.02-10L246.02-10 246.02 0 241.77 0 241.77-20.9 245.52-20.9Q245.62-19.35 245.7-18.07 245.77-16.8 245.87-15.55L245.87-15.55Q246.52-16.9 247.57-18 248.62-19.1 249.82-19.85 251.02-20.6 252.17-21.03 253.32-21.45 254.22-21.45L254.22-21.45ZM259.12-20.85L259.12-30.1 263.37-30.1 263.37-20.85 268.97-20.85 268.97-17.05 263.37-17.05 263.37 0 259.12 0 259.12-17.05 255.37-17.05 255.37-20.85 259.12-20.85ZM274.27-16.75L270.72-16.75 270.72-20.95 274.27-20.95 274.27-25.8Q274.27-32.35 277.34-35.52 280.42-38.7 286.07-38.85L286.07-38.85 286.07-34.75Q282.17-34.55 280.37-32.25 278.57-29.95 278.57-25.7L278.57-25.7 278.57-20.95 285.17-20.95 285.17-16.75 278.57-16.75 278.57 0 274.27 0 274.27-16.75ZM286.72-10.5L286.72-10.5Q286.72-12.75 287.59-14.75 288.47-16.75 289.97-18.23 291.47-19.7 293.49-20.58 295.52-21.45 297.87-21.45L297.87-21.45Q300.22-21.45 302.24-20.58 304.27-19.7 305.74-18.23 307.22-16.75 308.04-14.75 308.87-12.75 308.87-10.5L308.87-10.5Q308.87-8.25 308.04-6.25 307.22-4.25 305.74-2.75 304.27-1.25 302.24-0.38 300.22 0.5 297.82 0.5L297.82 0.5Q295.52 0.5 293.49-0.3 291.47-1.1 289.97-2.55 288.47-4 287.59-6.03 286.72-8.05 286.72-10.5ZM290.97-10.45L290.97-10.45Q290.97-9.05 291.49-7.83 292.02-6.6 292.94-5.68 293.87-4.75 295.09-4.23 296.32-3.7 297.72-3.7L297.72-3.7Q299.12-3.7 300.37-4.23 301.62-4.75 302.54-5.68 303.47-6.6 304.02-7.83 304.57-9.05 304.57-10.45L304.57-10.45Q304.57-11.85 304.02-13.1 303.47-14.35 302.54-15.28 301.62-16.2 300.37-16.73 299.12-17.25 297.72-17.25L297.72-17.25Q296.32-17.25 295.09-16.73 293.87-16.2 292.94-15.28 292.02-14.35 291.49-13.1 290.97-11.85 290.97-10.45ZM317.71-38.85L317.71 0 313.46 0 313.46-38.85 317.71-38.85ZM323.21-28.9L323.21-28.9Q323.21-30.1 324.09-30.9 324.96-31.7 325.96-31.7L325.96-31.7Q326.96-31.7 327.81-30.9 328.66-30.1 328.66-28.9L328.66-28.9Q328.66-27.7 327.81-26.93 326.96-26.15 325.96-26.15L325.96-26.15Q324.96-26.15 324.09-26.93 323.21-27.7 323.21-28.9ZM328.01-20.9L328.01 0 323.76 0 323.76-20.9 328.01-20.9ZM332.56-10.5L332.56-10.5Q332.56-12.75 333.43-14.75 334.31-16.75 335.81-18.23 337.31-19.7 339.33-20.58 341.36-21.45 343.71-21.45L343.71-21.45Q346.06-21.45 348.08-20.58 350.11-19.7 351.58-18.23 353.06-16.75 353.88-14.75 354.71-12.75 354.71-10.5L354.71-10.5Q354.71-8.25 353.88-6.25 353.06-4.25 351.58-2.75 350.11-1.25 348.08-0.38 346.06 0.5 343.66 0.5L343.66 0.5Q341.36 0.5 339.33-0.3 337.31-1.1 335.81-2.55 334.31-4 333.43-6.03 332.56-8.05 332.56-10.5ZM336.81-10.45L336.81-10.45Q336.81-9.05 337.33-7.83 337.86-6.6 338.78-5.68 339.71-4.75 340.93-4.23 342.16-3.7 343.56-3.7L343.56-3.7Q344.96-3.7 346.21-4.23 347.46-4.75 348.38-5.68 349.31-6.6 349.86-7.83 350.41-9.05 350.41-10.45L350.41-10.45Q350.41-11.85 349.86-13.1 349.31-14.35 348.38-15.28 347.46-16.2 346.21-16.73 344.96-17.25 343.56-17.25L343.56-17.25Q342.16-17.25 340.93-16.73 339.71-16.2 338.78-15.28 337.86-14.35 337.33-13.1 336.81-11.85 336.81-10.45Z" opacity="1" transform="matrix(1,0,0,1,0,0)" fill="#ffffff" class="undefined-text-0" data-fill-palette-color="primary" id="text-0"></path></svg></g></svg></g></svg></g></svg></g><g></g></svg></g></svg></g></svg></g></svg></g><defs><mask id="b3252762-75e3-4f20-98be-ea813ba014e3"><rect width="395.52" height="247.2" fill="white"></rect><g transform="matrix(1,0,0,1,0,97.95168408826945)" id="clone"><svg viewBox="0 0 395.52 51.296631823461084" height="51.296631823461084" width="395.52"><g><svg viewBox="0 0 395.52 51.296631823461084" height="51.296631823461084" width="395.52"><g><svg viewBox="0 0 395.52 51.296631823461084" height="51.296631823461084" width="395.52"><g><svg viewBox="0 0 395.52 51.296631823461084" height="51.296631823461084" width="395.52"><g id="SvgjsG1268"><svg viewBox="0 0 395.52 51.296631823461084" height="51.296631823461084" width="395.52" id="SvgjsSvg1267"><g><svg viewBox="0 0 395.52 51.296631823461084" height="51.296631823461084" width="395.52"><g transform="matrix(1,0,0,1,0,0)"><svg width="395.52" viewBox="0.6500000953674316 -39.20000076293945 388.4100036621094 51.25" height="51.296631823461084" data-palette-color="#ffffff"><path d="M16.6 0L16.6 0 3.65 0 3.65-33.7 14.7-33.7Q20-33.7 23.05-31.23 26.1-28.75 26.1-24.7L26.1-24.7Q26.1-21.9 24.53-19.8 22.95-17.7 20.5-17.1L20.5-17.1Q23.25-16.6 25.13-14.55 27-12.5 27-9.05L27-9.05Q27-5.05 24.28-2.53 21.55 0 16.6 0ZM14.3-29.45L14.3-29.45 8.8-29.45 8.8-19.1 13.45-19.1Q17.2-19.1 19.03-20.63 20.85-22.15 20.85-24.6L20.85-24.6Q20.85-26.75 19.23-28.1 17.6-29.45 14.3-29.45ZM14.9-14.9L14.9-14.9 8.8-14.9 8.8-4.25 15.4-4.25Q21.75-4.25 21.75-9.5L21.75-9.5Q21.75-12.05 20.03-13.48 18.3-14.9 14.9-14.9ZM53.45-17L53.45 0 48.55 0 48.55-16Q48.55-18.6 47.22-20.03 45.9-21.45 43.75-21.45L43.75-21.45Q41.25-21.45 39.32-19.55 37.4-17.65 37.4-13.75L37.4-13.75 37.4 0 32.5 0 32.5-35.35 37.4-35.35 37.4-21Q39.55-25.7 45.25-25.7L45.25-25.7Q48.95-25.7 51.2-23.4 53.45-21.1 53.45-17L53.45-17ZM68.25-3.65L68.25-3.65Q70.64-3.65 72.02-4.98 73.39-6.3 73.39-8.45L73.39-8.45 73.39-11.3 69.59-11.3Q66.8-11.3 65.37-10.2 63.95-9.1 63.95-7.4L63.95-7.4Q63.95-5.65 65.05-4.65 66.14-3.65 68.25-3.65ZM73.55 0L73.55-3Q71.59 0.2 66.69 0.2L66.69 0.2Q63.09 0.2 60.92-1.88 58.74-3.95 58.74-7.15L58.74-7.15Q58.74-10.8 61.49-12.83 64.25-14.85 69.19-14.85L69.19-14.85 73.39-14.85 73.39-16.3Q73.39-18.9 72.14-20.23 70.89-21.55 68-21.55L68-21.55Q63.95-21.55 60.64-19.3L60.64-19.3 60.64-24.05Q63.59-25.75 68.44-25.75L68.44-25.75Q78.39-25.75 78.39-16.1L78.39-16.1 78.39 0 73.55 0ZM106.29-25.35L97.09 0 91.49 0 82.49-25.35 87.64-25.35 91.09-14.65Q92.29-10.95 93.12-8.25 93.94-5.55 94.14-4.7L94.14-4.7 94.34-3.85Q94.79-6.3 97.64-14.65L97.64-14.65 101.19-25.35 106.29-25.35ZM131.79-25.35L122.64-0.7Q118.99 9.05 111.49 9.05L111.49 9.05Q110.14 9.05 109.19 8.8L109.19 8.8 109.19 4.6Q109.99 4.8 110.89 4.8L110.89 4.8Q115.74 4.8 117.69-0.55L117.69-0.55 107.59-25.35 113.04-25.35 116.19-17.1 120.14-6.4Q120.59-7.9 123.74-17.1L123.74-17.1 126.59-25.35 131.79-25.35ZM144.09-3.65L144.09-3.65Q146.49-3.65 147.86-4.98 149.24-6.3 149.24-8.45L149.24-8.45 149.24-11.3 145.44-11.3Q142.64-11.3 141.21-10.2 139.79-9.1 139.79-7.4L139.79-7.4Q139.79-5.65 140.89-4.65 141.99-3.65 144.09-3.65ZM149.39 0L149.39-3Q147.44 0.2 142.54 0.2L142.54 0.2Q138.94 0.2 136.76-1.88 134.59-3.95 134.59-7.15L134.59-7.15Q134.59-10.8 137.34-12.83 140.09-14.85 145.04-14.85L145.04-14.85 149.24-14.85 149.24-16.3Q149.24-18.9 147.99-20.23 146.74-21.55 143.84-21.55L143.84-21.55Q139.79-21.55 136.49-19.3L136.49-19.3 136.49-24.05Q139.44-25.75 144.29-25.75L144.29-25.75Q154.24-25.75 154.24-16.1L154.24-16.1 154.24 0 149.39 0ZM163.78-34.05L163.78-21.85 159.53-21.85 159.53-34.05 163.78-34.05ZM185.23-7L185.23-7Q185.23-3.6 182.83-1.68 180.43 0.25 176.33 0.25L176.33 0.25Q171.83 0.25 168.83-1.25L168.83-1.25 168.83-5.9Q172.33-3.75 176.08-3.75L176.08-3.75Q178.03-3.75 179.11-4.55 180.18-5.35 180.18-6.65L180.18-6.65Q180.18-7.75 179.33-8.63 178.48-9.5 177.61-9.93 176.73-10.35 174.63-11.25L174.63-11.25Q168.68-13.7 168.68-18.45L168.68-18.45Q168.68-21.8 171.18-23.7 173.68-25.6 177.43-25.6L177.43-25.6Q181.53-25.6 183.83-24.5L183.83-24.5 183.83-20.05Q181.38-21.5 177.53-21.5L177.53-21.5Q175.78-21.5 174.76-20.7 173.73-19.9 173.73-18.6L173.73-18.6Q173.73-18.25 173.81-17.93 173.88-17.6 174.08-17.28 174.28-16.95 174.46-16.73 174.63-16.5 175.03-16.25 175.43-16 175.66-15.83 175.88-15.65 176.41-15.4 176.93-15.15 177.18-15.03 177.43-14.9 178.06-14.63 178.68-14.35 178.93-14.25L178.93-14.25Q181.88-12.95 183.56-11.33 185.23-9.7 185.23-7ZM212.78-11.95L212.78-11.95 207.98-11.95 207.98 0 202.83 0 202.83-33.7 212.48-33.7Q218.28-33.7 221.68-30.63 225.08-27.55 225.08-22.75 225.08-17.95 221.65-14.95 218.23-11.95 212.78-11.95ZM212.28-29.45L212.28-29.45 207.98-29.45 207.98-16.2 212.38-16.2Q216.03-16.2 217.95-18 219.88-19.8 219.88-22.75L219.88-22.75Q219.88-25.85 217.93-27.65 215.98-29.45 212.28-29.45ZM249.68-22.03Q252.83-18.35 252.83-12.65 252.83-6.95 249.6-3.25 246.38 0.45 240.73 0.45L240.73 0.45Q235.13 0.45 231.93-3.2 228.73-6.85 228.73-12.45L228.73-12.45Q228.73-18.15 232.03-21.93 235.33-25.7 240.73-25.7L240.73-25.7Q246.53-25.7 249.68-22.03ZM233.83-12.6L233.83-12.6Q233.83-8.85 235.68-6.28 237.53-3.7 240.73-3.7L240.73-3.7Q244.13-3.7 245.9-6.2 247.68-8.7 247.68-12.55L247.68-12.55Q247.68-16.5 245.98-19.03 244.28-21.55 240.68-21.55L240.68-21.55Q237.43-21.55 235.63-18.98 233.83-16.4 233.83-12.6ZM263.22-13.5L263.22 0 258.32 0 258.32-25.35 263.22-25.35 263.22-20.9Q265.07-25.6 269.87-25.6L269.87-25.6Q270.57-25.6 271.42-25.45L271.42-25.45 271.42-20.65Q270.37-21.1 269.07-21.1L269.07-21.1Q266.52-21.1 264.87-18.85 263.22-16.6 263.22-13.5L263.22-13.5ZM288.57-5.05L288.57-0.65Q286.92 0.25 284.52 0.25L284.52 0.25Q276.67 0.25 276.67-7.7L276.67-7.7 276.67-21.55 272.72-21.55 272.72-25.35 276.67-25.35 276.67-31.55 281.62-31.55 281.62-25.35 288.27-25.35 288.27-21.55 281.62-21.55 281.62-7.6Q281.62-3.95 285.12-3.95L285.12-3.95Q287.17-3.95 288.57-5.05L288.57-5.05ZM306.32-25.35L306.32-21.55 300.97-21.55 300.97 0 296.07 0 296.07-21.55 292.02-21.55 292.02-25.35 296.07-25.35 296.07-27.3Q296.07-31.25 298.19-33.52 300.32-35.8 304.17-35.8L304.17-35.8Q305.57-35.8 307.02-35.4L307.02-35.4 307.02-31.1Q305.87-31.6 304.62-31.6L304.62-31.6Q300.97-31.6 300.97-27.25L300.97-27.25 300.97-25.35 306.32-25.35ZM330.21-22.03Q333.36-18.35 333.36-12.65 333.36-6.95 330.14-3.25 326.91 0.45 321.26 0.45L321.26 0.45Q315.66 0.45 312.46-3.2 309.26-6.85 309.26-12.45L309.26-12.45Q309.26-18.15 312.56-21.93 315.86-25.7 321.26-25.7L321.26-25.7Q327.06-25.7 330.21-22.03ZM314.36-12.6L314.36-12.6Q314.36-8.85 316.21-6.28 318.06-3.7 321.26-3.7L321.26-3.7Q324.66-3.7 326.44-6.2 328.21-8.7 328.21-12.55L328.21-12.55Q328.21-16.5 326.51-19.03 324.81-21.55 321.21-21.55L321.21-21.55Q317.96-21.55 316.16-18.98 314.36-16.4 314.36-12.6ZM344.01-35.35L344.01 0 339.06 0 339.06-35.35 344.01-35.35ZM356.26-25.35L356.26 0 351.31 0 351.31-25.35 356.26-25.35ZM356.86-33.1L356.86-33.1Q356.86-31.85 355.96-30.95 355.06-30.05 353.76-30.05 352.46-30.05 351.58-30.93 350.71-31.8 350.71-33.1 350.71-34.4 351.58-35.3 352.46-36.2 353.76-36.2 355.06-36.2 355.96-35.3 356.86-34.4 356.86-33.1ZM382.91-22.03Q386.06-18.35 386.06-12.65 386.06-6.95 382.83-3.25 379.61 0.45 373.96 0.45L373.96 0.45Q368.36 0.45 365.16-3.2 361.96-6.85 361.96-12.45L361.96-12.45Q361.96-18.15 365.26-21.93 368.56-25.7 373.96-25.7L373.96-25.7Q379.76-25.7 382.91-22.03ZM367.06-12.6L367.06-12.6Q367.06-8.85 368.91-6.28 370.76-3.7 373.96-3.7L373.96-3.7Q377.36-3.7 379.13-6.2 380.91-8.7 380.91-12.55L380.91-12.55Q380.91-16.5 379.21-19.03 377.51-21.55 373.91-21.55L373.91-21.55Q370.66-21.55 368.86-18.98 367.06-16.4 367.06-12.6Z" opacity="1" transform="matrix(1,0,0,1,0,0)" fill="#ffffff" class="undefined-text-0" data-fill-palette-color="primary" id="SvgjsPath1266" stroke-width="5" stroke="black" stroke-linejoin="round"></path></svg></g></svg></g></svg></g></svg></g><g></g></svg></g></svg></g></svg></g></mask><mask id="c331f58d-d2b3-47ad-a760-8753e09ce542"><rect width="395.52" height="247.2" fill="white"></rect><g transform="matrix(1,0,0,1,0,97.95168408826945)" id="clone"><svg viewBox="0 0 395.52 51.296631823461084" height="51.296631823461084" width="395.52"><g><svg viewBox="0 0 395.52 51.296631823461084" height="51.296631823461084" width="395.52"><g><svg viewBox="0 0 395.52 51.296631823461084" height="51.296631823461084" width="395.52"><g><svg viewBox="0 0 395.52 51.296631823461084" height="51.296631823461084" width="395.52"><g id="SvgjsG1272"><svg viewBox="0 0 395.52 51.296631823461084" height="51.296631823461084" width="395.52" id="SvgjsSvg1271"><g><svg viewBox="0 0 395.52 51.296631823461084" height="51.296631823461084" width="395.52"><g transform="matrix(1,0,0,1,0,0)"><svg width="395.52" viewBox="0.6500000953674316 -39.20000076293945 388.4100036621094 51.25" height="51.296631823461084" data-palette-color="#ffffff"><path d="M16.6 0L16.6 0 3.65 0 3.65-33.7 14.7-33.7Q20-33.7 23.05-31.23 26.1-28.75 26.1-24.7L26.1-24.7Q26.1-21.9 24.53-19.8 22.95-17.7 20.5-17.1L20.5-17.1Q23.25-16.6 25.13-14.55 27-12.5 27-9.05L27-9.05Q27-5.05 24.28-2.53 21.55 0 16.6 0ZM14.3-29.45L14.3-29.45 8.8-29.45 8.8-19.1 13.45-19.1Q17.2-19.1 19.03-20.63 20.85-22.15 20.85-24.6L20.85-24.6Q20.85-26.75 19.23-28.1 17.6-29.45 14.3-29.45ZM14.9-14.9L14.9-14.9 8.8-14.9 8.8-4.25 15.4-4.25Q21.75-4.25 21.75-9.5L21.75-9.5Q21.75-12.05 20.03-13.48 18.3-14.9 14.9-14.9ZM53.45-17L53.45 0 48.55 0 48.55-16Q48.55-18.6 47.22-20.03 45.9-21.45 43.75-21.45L43.75-21.45Q41.25-21.45 39.32-19.55 37.4-17.65 37.4-13.75L37.4-13.75 37.4 0 32.5 0 32.5-35.35 37.4-35.35 37.4-21Q39.55-25.7 45.25-25.7L45.25-25.7Q48.95-25.7 51.2-23.4 53.45-21.1 53.45-17L53.45-17ZM68.25-3.65L68.25-3.65Q70.64-3.65 72.02-4.98 73.39-6.3 73.39-8.45L73.39-8.45 73.39-11.3 69.59-11.3Q66.8-11.3 65.37-10.2 63.95-9.1 63.95-7.4L63.95-7.4Q63.95-5.65 65.05-4.65 66.14-3.65 68.25-3.65ZM73.55 0L73.55-3Q71.59 0.2 66.69 0.2L66.69 0.2Q63.09 0.2 60.92-1.88 58.74-3.95 58.74-7.15L58.74-7.15Q58.74-10.8 61.49-12.83 64.25-14.85 69.19-14.85L69.19-14.85 73.39-14.85 73.39-16.3Q73.39-18.9 72.14-20.23 70.89-21.55 68-21.55L68-21.55Q63.95-21.55 60.64-19.3L60.64-19.3 60.64-24.05Q63.59-25.75 68.44-25.75L68.44-25.75Q78.39-25.75 78.39-16.1L78.39-16.1 78.39 0 73.55 0ZM106.29-25.35L97.09 0 91.49 0 82.49-25.35 87.64-25.35 91.09-14.65Q92.29-10.95 93.12-8.25 93.94-5.55 94.14-4.7L94.14-4.7 94.34-3.85Q94.79-6.3 97.64-14.65L97.64-14.65 101.19-25.35 106.29-25.35ZM131.79-25.35L122.64-0.7Q118.99 9.05 111.49 9.05L111.49 9.05Q110.14 9.05 109.19 8.8L109.19 8.8 109.19 4.6Q109.99 4.8 110.89 4.8L110.89 4.8Q115.74 4.8 117.69-0.55L117.69-0.55 107.59-25.35 113.04-25.35 116.19-17.1 120.14-6.4Q120.59-7.9 123.74-17.1L123.74-17.1 126.59-25.35 131.79-25.35ZM144.09-3.65L144.09-3.65Q146.49-3.65 147.86-4.98 149.24-6.3 149.24-8.45L149.24-8.45 149.24-11.3 145.44-11.3Q142.64-11.3 141.21-10.2 139.79-9.1 139.79-7.4L139.79-7.4Q139.79-5.65 140.89-4.65 141.99-3.65 144.09-3.65ZM149.39 0L149.39-3Q147.44 0.2 142.54 0.2L142.54 0.2Q138.94 0.2 136.76-1.88 134.59-3.95 134.59-7.15L134.59-7.15Q134.59-10.8 137.34-12.83 140.09-14.85 145.04-14.85L145.04-14.85 149.24-14.85 149.24-16.3Q149.24-18.9 147.99-20.23 146.74-21.55 143.84-21.55L143.84-21.55Q139.79-21.55 136.49-19.3L136.49-19.3 136.49-24.05Q139.44-25.75 144.29-25.75L144.29-25.75Q154.24-25.75 154.24-16.1L154.24-16.1 154.24 0 149.39 0ZM163.78-34.05L163.78-21.85 159.53-21.85 159.53-34.05 163.78-34.05ZM185.23-7L185.23-7Q185.23-3.6 182.83-1.68 180.43 0.25 176.33 0.25L176.33 0.25Q171.83 0.25 168.83-1.25L168.83-1.25 168.83-5.9Q172.33-3.75 176.08-3.75L176.08-3.75Q178.03-3.75 179.11-4.55 180.18-5.35 180.18-6.65L180.18-6.65Q180.18-7.75 179.33-8.63 178.48-9.5 177.61-9.93 176.73-10.35 174.63-11.25L174.63-11.25Q168.68-13.7 168.68-18.45L168.68-18.45Q168.68-21.8 171.18-23.7 173.68-25.6 177.43-25.6L177.43-25.6Q181.53-25.6 183.83-24.5L183.83-24.5 183.83-20.05Q181.38-21.5 177.53-21.5L177.53-21.5Q175.78-21.5 174.76-20.7 173.73-19.9 173.73-18.6L173.73-18.6Q173.73-18.25 173.81-17.93 173.88-17.6 174.08-17.28 174.28-16.95 174.46-16.73 174.63-16.5 175.03-16.25 175.43-16 175.66-15.83 175.88-15.65 176.41-15.4 176.93-15.15 177.18-15.03 177.43-14.9 178.06-14.63 178.68-14.35 178.93-14.25L178.93-14.25Q181.88-12.95 183.56-11.33 185.23-9.7 185.23-7ZM212.78-11.95L212.78-11.95 207.98-11.95 207.98 0 202.83 0 202.83-33.7 212.48-33.7Q218.28-33.7 221.68-30.63 225.08-27.55 225.08-22.75 225.08-17.95 221.65-14.95 218.23-11.95 212.78-11.95ZM212.28-29.45L212.28-29.45 207.98-29.45 207.98-16.2 212.38-16.2Q216.03-16.2 217.95-18 219.88-19.8 219.88-22.75L219.88-22.75Q219.88-25.85 217.93-27.65 215.98-29.45 212.28-29.45ZM249.68-22.03Q252.83-18.35 252.83-12.65 252.83-6.95 249.6-3.25 246.38 0.45 240.73 0.45L240.73 0.45Q235.13 0.45 231.93-3.2 228.73-6.85 228.73-12.45L228.73-12.45Q228.73-18.15 232.03-21.93 235.33-25.7 240.73-25.7L240.73-25.7Q246.53-25.7 249.68-22.03ZM233.83-12.6L233.83-12.6Q233.83-8.85 235.68-6.28 237.53-3.7 240.73-3.7L240.73-3.7Q244.13-3.7 245.9-6.2 247.68-8.7 247.68-12.55L247.68-12.55Q247.68-16.5 245.98-19.03 244.28-21.55 240.68-21.55L240.68-21.55Q237.43-21.55 235.63-18.98 233.83-16.4 233.83-12.6ZM263.22-13.5L263.22 0 258.32 0 258.32-25.35 263.22-25.35 263.22-20.9Q265.07-25.6 269.87-25.6L269.87-25.6Q270.57-25.6 271.42-25.45L271.42-25.45 271.42-20.65Q270.37-21.1 269.07-21.1L269.07-21.1Q266.52-21.1 264.87-18.85 263.22-16.6 263.22-13.5L263.22-13.5ZM288.57-5.05L288.57-0.65Q286.92 0.25 284.52 0.25L284.52 0.25Q276.67 0.25 276.67-7.7L276.67-7.7 276.67-21.55 272.72-21.55 272.72-25.35 276.67-25.35 276.67-31.55 281.62-31.55 281.62-25.35 288.27-25.35 288.27-21.55 281.62-21.55 281.62-7.6Q281.62-3.95 285.12-3.95L285.12-3.95Q287.17-3.95 288.57-5.05L288.57-5.05ZM306.32-25.35L306.32-21.55 300.97-21.55 300.97 0 296.07 0 296.07-21.55 292.02-21.55 292.02-25.35 296.07-25.35 296.07-27.3Q296.07-31.25 298.19-33.52 300.32-35.8 304.17-35.8L304.17-35.8Q305.57-35.8 307.02-35.4L307.02-35.4 307.02-31.1Q305.87-31.6 304.62-31.6L304.62-31.6Q300.97-31.6 300.97-27.25L300.97-27.25 300.97-25.35 306.32-25.35ZM330.21-22.03Q333.36-18.35 333.36-12.65 333.36-6.95 330.14-3.25 326.91 0.45 321.26 0.45L321.26 0.45Q315.66 0.45 312.46-3.2 309.26-6.85 309.26-12.45L309.26-12.45Q309.26-18.15 312.56-21.93 315.86-25.7 321.26-25.7L321.26-25.7Q327.06-25.7 330.21-22.03ZM314.36-12.6L314.36-12.6Q314.36-8.85 316.21-6.28 318.06-3.7 321.26-3.7L321.26-3.7Q324.66-3.7 326.44-6.2 328.21-8.7 328.21-12.55L328.21-12.55Q328.21-16.5 326.51-19.03 324.81-21.55 321.21-21.55L321.21-21.55Q317.96-21.55 316.16-18.98 314.36-16.4 314.36-12.6ZM344.01-35.35L344.01 0 339.06 0 339.06-35.35 344.01-35.35ZM356.26-25.35L356.26 0 351.31 0 351.31-25.35 356.26-25.35ZM356.86-33.1L356.86-33.1Q356.86-31.85 355.96-30.95 355.06-30.05 353.76-30.05 352.46-30.05 351.58-30.93 350.71-31.8 350.71-33.1 350.71-34.4 351.58-35.3 352.46-36.2 353.76-36.2 355.06-36.2 355.96-35.3 356.86-34.4 356.86-33.1ZM382.91-22.03Q386.06-18.35 386.06-12.65 386.06-6.95 382.83-3.25 379.61 0.45 373.96 0.45L373.96 0.45Q368.36 0.45 365.16-3.2 361.96-6.85 361.96-12.45L361.96-12.45Q361.96-18.15 365.26-21.93 368.56-25.7 373.96-25.7L373.96-25.7Q379.76-25.7 382.91-22.03ZM367.06-12.6L367.06-12.6Q367.06-8.85 368.91-6.28 370.76-3.7 373.96-3.7L373.96-3.7Q377.36-3.7 379.13-6.2 380.91-8.7 380.91-12.55L380.91-12.55Q380.91-16.5 379.21-19.03 377.51-21.55 373.91-21.55L373.91-21.55Q370.66-21.55 368.86-18.98 367.06-16.4 367.06-12.6Z" opacity="1" transform="matrix(1,0,0,1,0,0)" fill="#ffffff" class="undefined-text-0" data-fill-palette-color="primary" id="SvgjsPath1270" stroke-width="5" stroke="black" stroke-linejoin="round"></path></svg></g></svg></g></svg></g></svg></g><g></g></svg></g></svg></g></svg></g></mask><mask id="504e0f3f-2e83-4155-91e8-135e7f35d80a"><rect width="395.52" height="247.2" fill="white"></rect><g transform="matrix(1,0,0,1,0,98.6748304481859)" id="clone"><svg viewBox="0 0 395.52 49.85033910362817" height="49.85033910362817" width="395.52"><g><svg viewBox="0 0 395.52 49.85033910362817" height="49.85033910362817" width="395.52"><g><svg viewBox="0 0 395.52 49.85033910362817" height="49.85033910362817" width="395.52"><g><svg viewBox="0 0 395.52 49.85033910362817" height="49.85033910362817" width="395.52"><g id="SvgjsG1276"><svg viewBox="0 0 395.52 49.85033910362817" height="49.85033910362817" width="395.52" id="SvgjsSvg1275"><g><svg viewBox="0 0 395.52 49.85033910362817" height="49.85033910362817" width="395.52"><g transform="matrix(1,0,0,1,0,0)"><svg width="395.52" viewBox="1.1500000953674316 -41.79999923706055 422.6600036621094 54.150001525878906" height="49.85033910362817" data-palette-color="#ffffff"><path d="M14.6 0.4L14.6 0.4Q11.85 0.4 9.05 0.23 6.25 0.05 4.15-0.5L4.15-0.5 4.15-34.15Q5.25-34.35 6.5-34.52 7.75-34.7 9.05-34.8 10.35-34.9 11.63-34.95 12.9-35 14.05-35L14.05-35Q17.2-35 19.9-34.52 22.6-34.05 24.58-32.95 26.55-31.85 27.65-30.05 28.75-28.25 28.75-25.6L28.75-25.6Q28.75-23.15 27.58-21.4 26.4-19.65 24.3-18.6L24.3-18.6Q27.45-17.55 28.95-15.5 30.45-13.45 30.45-10.3L30.45-10.3Q30.45-4.95 26.55-2.27 22.65 0.4 14.6 0.4ZM15.9-15.6L10.35-15.6 10.35-5.05Q11.4-4.95 12.6-4.9 13.8-4.85 14.8-4.85L14.8-4.85Q16.75-4.85 18.43-5.1 20.1-5.35 21.33-5.98 22.55-6.6 23.28-7.65 24-8.7 24-10.35L24-10.35Q24-13.3 21.85-14.45 19.7-15.6 15.9-15.6L15.9-15.6ZM10.35-29.65L10.35-20.55 14.8-20.55Q18.4-20.55 20.45-21.58 22.5-22.6 22.5-25.25L22.5-25.25Q22.5-27.75 20.38-28.8 18.25-29.85 14.85-29.85L14.85-29.85Q13.4-29.85 12.28-29.8 11.15-29.75 10.35-29.65L10.35-29.65ZM42.75 0L36.7 0 36.7-37.8 42.75-38.8 42.75-25.85Q43.75-26.2 45.07-26.45 46.4-26.7 47.7-26.7L47.7-26.7Q50.85-26.7 52.92-25.83 55-24.95 56.25-23.38 57.5-21.8 58.02-19.6 58.55-17.4 58.55-14.7L58.55-14.7 58.55 0 52.5 0 52.5-13.75Q52.5-15.85 52.22-17.32 51.95-18.8 51.32-19.73 50.7-20.65 49.65-21.08 48.6-21.5 47.05-21.5L47.05-21.5Q45.85-21.5 44.6-21.25 43.35-21 42.75-20.8L42.75-20.8 42.75 0ZM75-4.25L75-4.25Q77.8-4.25 79.25-4.55L79.25-4.55 79.25-11.25Q78.75-11.4 77.8-11.55 76.85-11.7 75.7-11.7L75.7-11.7Q74.7-11.7 73.67-11.55 72.65-11.4 71.82-11 71-10.6 70.5-9.88 70-9.15 70-8.05L70-8.05Q70-5.9 71.35-5.08 72.7-4.25 75-4.25ZM74.5-26.8L74.5-26.8Q77.5-26.8 79.55-26.05 81.6-25.3 82.82-23.95 84.05-22.6 84.57-20.68 85.1-18.75 85.1-16.45L85.1-16.45 85.1-0.6Q83.7-0.3 80.87 0.13 78.05 0.55 74.5 0.55L74.5 0.55Q72.15 0.55 70.2 0.1 68.25-0.35 66.87-1.35 65.5-2.35 64.72-3.95 63.95-5.55 63.95-7.9L63.95-7.9Q63.95-10.15 64.82-11.7 65.7-13.25 67.2-14.23 68.7-15.2 70.67-15.63 72.65-16.05 74.8-16.05L74.8-16.05Q75.8-16.05 76.9-15.93 78-15.8 79.25-15.5L79.25-15.5 79.25-16.5Q79.25-17.55 79-18.5 78.75-19.45 78.12-20.18 77.5-20.9 76.47-21.3 75.45-21.7 73.9-21.7L73.9-21.7Q71.8-21.7 70.05-21.4 68.3-21.1 67.2-20.7L67.2-20.7 66.45-25.6Q67.6-26 69.8-26.4 72-26.8 74.5-26.8ZM103.74 0L98.54 0Q96.04-5.15 93.42-11.83 90.79-18.5 88.64-26.15L88.64-26.15 95.09-26.15Q95.64-23.95 96.37-21.43 97.09-18.9 97.92-16.38 98.74-13.85 99.62-11.48 100.49-9.1 101.24-7.2L101.24-7.2Q101.99-9.1 102.84-11.48 103.69-13.85 104.52-16.38 105.34-18.9 106.09-21.43 106.84-23.95 107.39-26.15L107.39-26.15 113.64-26.15Q111.49-18.5 108.87-11.83 106.24-5.15 103.74 0L103.74 0ZM134.04-26.15L140.29-26.15Q136.24-11.25 130.89 0.85L130.89 0.85Q129.89 3.1 128.84 4.7 127.79 6.3 126.49 7.35 125.19 8.4 123.59 8.88 121.99 9.35 119.89 9.35L119.89 9.35Q118.49 9.35 117.12 9.05 115.74 8.75 115.04 8.4L115.04 8.4 116.14 3.55Q117.94 4.25 119.69 4.25L119.69 4.25Q122.04 4.25 123.37 3.13 124.69 2 125.69-0.35L125.69-0.35Q122.84-5.85 120.22-12.35 117.59-18.85 115.54-26.15L115.54-26.15 121.99-26.15Q122.49-24.05 123.22-21.6 123.94-19.15 124.79-16.63 125.64-14.1 126.59-11.6 127.54-9.1 128.49-6.95L128.49-6.95Q130.09-11.4 131.49-16.43 132.89-21.45 134.04-26.15L134.04-26.15ZM154.09-4.25L154.09-4.25Q156.89-4.25 158.34-4.55L158.34-4.55 158.34-11.25Q157.84-11.4 156.89-11.55 155.94-11.7 154.79-11.7L154.79-11.7Q153.79-11.7 152.76-11.55 151.74-11.4 150.91-11 150.09-10.6 149.59-9.88 149.09-9.15 149.09-8.05L149.09-8.05Q149.09-5.9 150.44-5.08 151.79-4.25 154.09-4.25ZM153.59-26.8L153.59-26.8Q156.59-26.8 158.64-26.05 160.69-25.3 161.91-23.95 163.14-22.6 163.66-20.68 164.19-18.75 164.19-16.45L164.19-16.45 164.19-0.6Q162.79-0.3 159.96 0.13 157.14 0.55 153.59 0.55L153.59 0.55Q151.24 0.55 149.29 0.1 147.34-0.35 145.96-1.35 144.59-2.35 143.81-3.95 143.04-5.55 143.04-7.9L143.04-7.9Q143.04-10.15 143.91-11.7 144.79-13.25 146.29-14.23 147.79-15.2 149.76-15.63 151.74-16.05 153.89-16.05L153.89-16.05Q154.89-16.05 155.99-15.93 157.09-15.8 158.34-15.5L158.34-15.5 158.34-16.5Q158.34-17.55 158.09-18.5 157.84-19.45 157.21-20.18 156.59-20.9 155.56-21.3 154.54-21.7 152.99-21.7L152.99-21.7Q150.89-21.7 149.14-21.4 147.39-21.1 146.29-20.7L146.29-20.7 145.54-25.6Q146.69-26 148.89-26.4 151.09-26.8 153.59-26.8ZM170.03-38L176.14-38 176.14-34.9Q176.14-32.5 175.78-29.73 175.44-26.95 174.99-24.15L174.99-24.15 171.14-24.15Q170.64-26.95 170.34-29.7 170.03-32.45 170.03-34.95L170.03-34.95 170.03-38ZM189.98-4.35L189.98-4.35Q192.38-4.35 193.48-4.93 194.58-5.5 194.58-6.9L194.58-6.9Q194.58-8.2 193.41-9.05 192.23-9.9 189.53-10.9L189.53-10.9Q187.88-11.5 186.51-12.18 185.13-12.85 184.13-13.75 183.13-14.65 182.56-15.93 181.98-17.2 181.98-19.05L181.98-19.05Q181.98-22.65 184.63-24.73 187.28-26.8 191.83-26.8L191.83-26.8Q194.13-26.8 196.23-26.38 198.33-25.95 199.38-25.55L199.38-25.55 198.28-20.65Q197.28-21.1 195.73-21.48 194.18-21.85 192.13-21.85L192.13-21.85Q190.28-21.85 189.13-21.23 187.98-20.6 187.98-19.3L187.98-19.3Q187.98-18.65 188.21-18.15 188.43-17.65 188.98-17.23 189.53-16.8 190.43-16.38 191.33-15.95 192.63-15.5L192.63-15.5Q194.78-14.7 196.28-13.93 197.78-13.15 198.76-12.18 199.73-11.2 200.18-9.95 200.63-8.7 200.63-6.95L200.63-6.95Q200.63-3.2 197.86-1.28 195.08 0.65 189.93 0.65L189.93 0.65Q186.48 0.65 184.38 0.08 182.28-0.5 181.43-0.85L181.43-0.85 182.48-5.9Q183.83-5.35 185.71-4.85 187.58-4.35 189.98-4.35ZM228.03-35L228.03-35Q235.58-35 239.6-32.25 243.63-29.5 243.63-23.65L243.63-23.65Q243.63-20.6 242.55-18.43 241.48-16.25 239.43-14.88 237.38-13.5 234.43-12.85 231.48-12.2 227.68-12.2L227.68-12.2 224.53-12.2 224.53 0 218.23 0 218.23-34.15Q220.43-34.65 223.1-34.83 225.78-35 228.03-35ZM228.48-29.55L228.48-29.55Q226.08-29.55 224.53-29.4L224.53-29.4 224.53-17.6 227.58-17.6Q232.13-17.6 234.58-18.88 237.03-20.15 237.03-23.7L237.03-23.7Q237.03-25.4 236.38-26.55 235.73-27.7 234.58-28.35 233.43-29 231.85-29.28 230.28-29.55 228.48-29.55ZM271.83-13.1L271.83-13.1Q271.83-10 270.93-7.45 270.03-4.9 268.38-3.1 266.73-1.3 264.4-0.3 262.08 0.7 259.28 0.7L259.28 0.7Q256.48 0.7 254.18-0.3 251.88-1.3 250.23-3.1 248.58-4.9 247.65-7.45 246.73-10 246.73-13.1L246.73-13.1Q246.73-16.2 247.65-18.73 248.58-21.25 250.25-23.05 251.93-24.85 254.23-25.83 256.53-26.8 259.28-26.8L259.28-26.8Q262.03-26.8 264.35-25.83 266.68-24.85 268.33-23.05 269.98-21.25 270.9-18.73 271.83-16.2 271.83-13.1ZM265.63-13.1L265.63-13.1Q265.63-17 263.95-19.28 262.28-21.55 259.28-21.55L259.28-21.55Q256.28-21.55 254.6-19.28 252.93-17 252.93-13.1L252.93-13.1Q252.93-9.15 254.6-6.85 256.28-4.55 259.28-4.55L259.28-4.55Q262.28-4.55 263.95-6.85 265.63-9.15 265.63-13.1ZM294.02-25.8L292.97-20.7Q292.22-20.95 290.9-21.23 289.57-21.5 287.82-21.5L287.82-21.5Q286.82-21.5 285.7-21.3 284.57-21.1 284.12-20.95L284.12-20.95 284.12 0 278.07 0 278.07-24.9Q279.82-25.55 282.45-26.13 285.07-26.7 288.27-26.7L288.27-26.7Q288.87-26.7 289.67-26.63 290.47-26.55 291.27-26.43 292.07-26.3 292.82-26.13 293.57-25.95 294.02-25.8L294.02-25.8ZM297.92-10.4L297.92-33.05 303.97-34.05 303.97-26.15 313.27-26.15 313.27-21.1 303.97-21.1 303.97-10.45Q303.97-7.3 304.97-5.95 305.97-4.6 308.37-4.6L308.37-4.6Q310.02-4.6 311.3-4.95 312.57-5.3 313.32-5.6L313.32-5.6 314.32-0.8Q313.27-0.35 311.57 0.13 309.87 0.6 307.57 0.6L307.57 0.6Q304.77 0.6 302.89-0.15 301.02-0.9 299.92-2.33 298.82-3.75 298.37-5.78 297.92-7.8 297.92-10.4L297.92-10.4ZM329.77-38.8L329.77-38.8Q331.87-38.8 333.47-38.43 335.07-38.05 335.87-37.75L335.87-37.75 334.72-32.75Q333.87-33.15 332.74-33.4 331.62-33.65 330.32-33.65L330.32-33.65Q328.87-33.65 327.87-33.23 326.87-32.8 326.27-32.05 325.67-31.3 325.42-30.23 325.17-29.15 325.17-27.9L325.17-27.9 325.17-26.15 334.67-26.15 334.67-21.1 325.17-21.1 325.17 0 319.12 0 319.12-28Q319.12-33.05 321.77-35.93 324.42-38.8 329.77-38.8ZM362.26-13.1L362.26-13.1Q362.26-10 361.37-7.45 360.46-4.9 358.81-3.1 357.16-1.3 354.84-0.3 352.51 0.7 349.71 0.7L349.71 0.7Q346.91 0.7 344.62-0.3 342.31-1.3 340.66-3.1 339.01-4.9 338.09-7.45 337.16-10 337.16-13.1L337.16-13.1Q337.16-16.2 338.09-18.73 339.01-21.25 340.69-23.05 342.37-24.85 344.66-25.83 346.96-26.8 349.71-26.8L349.71-26.8Q352.46-26.8 354.79-25.83 357.12-24.85 358.76-23.05 360.41-21.25 361.34-18.73 362.26-16.2 362.26-13.1ZM356.06-13.1L356.06-13.1Q356.06-17 354.39-19.28 352.71-21.55 349.71-21.55L349.71-21.55Q346.71-21.55 345.04-19.28 343.37-17 343.37-13.1L343.37-13.1Q343.37-9.15 345.04-6.85 346.71-4.55 349.71-4.55L349.71-4.55Q352.71-4.55 354.39-6.85 356.06-9.15 356.06-13.1ZM378.46-4.5L377.61 0.5Q374.91 0.45 373.14-0.1 371.36-0.65 370.31-1.68 369.26-2.7 368.84-4.23 368.41-5.75 368.41-7.7L368.41-7.7 368.41-37.8 374.46-38.8 374.46-8.85Q374.46-7.75 374.64-7 374.81-6.25 375.26-5.73 375.71-5.2 376.49-4.93 377.26-4.65 378.46-4.5L378.46-4.5ZM389.46-26.15L389.46 0 383.41 0 383.41-26.15 389.46-26.15ZM390.11-33.8L390.11-33.8Q390.11-32.1 389.01-31.1 387.91-30.1 386.41-30.1L386.41-30.1Q384.86-30.1 383.76-31.1 382.66-32.1 382.66-33.8L382.66-33.8Q382.66-35.55 383.76-36.55 384.86-37.55 386.41-37.55L386.41-37.55Q387.91-37.55 389.01-36.55 390.11-35.55 390.11-33.8ZM420.81-13.1L420.81-13.1Q420.81-10 419.91-7.45 419.01-4.9 417.36-3.1 415.71-1.3 413.38-0.3 411.06 0.7 408.26 0.7L408.26 0.7Q405.46 0.7 403.16-0.3 400.86-1.3 399.21-3.1 397.56-4.9 396.63-7.45 395.71-10 395.71-13.1L395.71-13.1Q395.71-16.2 396.63-18.73 397.56-21.25 399.23-23.05 400.91-24.85 403.21-25.83 405.51-26.8 408.26-26.8L408.26-26.8Q411.01-26.8 413.33-25.83 415.66-24.85 417.31-23.05 418.96-21.25 419.88-18.73 420.81-16.2 420.81-13.1ZM414.61-13.1L414.61-13.1Q414.61-17 412.93-19.28 411.26-21.55 408.26-21.55L408.26-21.55Q405.26-21.55 403.58-19.28 401.91-17 401.91-13.1L401.91-13.1Q401.91-9.15 403.58-6.85 405.26-4.55 408.26-4.55L408.26-4.55Q411.26-4.55 412.93-6.85 414.61-9.15 414.61-13.1Z" opacity="1" transform="matrix(1,0,0,1,0,0)" fill="#ffffff" class="undefined-text-0" data-fill-palette-color="primary" id="SvgjsPath1274" stroke-width="5" stroke="black" stroke-linejoin="round"></path></svg></g></svg></g></svg></g></svg></g><g></g></svg></g></svg></g></svg></g></mask><mask id="6b08f343-c9f8-4e47-98f0-7402712cf5ca"><rect width="395.52" height="247.2" fill="white"></rect><g transform="matrix(1,0,0,1,0,93.59925696594426)" id="clone"><svg viewBox="0 0 395.52 60.001486068111454" height="60.001486068111454" width="395.52"><g><svg viewBox="0 0 395.52 60.001486068111454" height="60.001486068111454" width="395.52"><g><svg viewBox="0 0 395.52 60.001486068111454" height="60.001486068111454" width="395.52"><g><svg viewBox="0 0 395.52 60.001486068111454" height="60.001486068111454" width="395.52"><g id="SvgjsG1280"><svg viewBox="0 0 395.52 60.001486068111454" height="60.001486068111454" width="395.52" id="SvgjsSvg1279"><g><svg viewBox="0 0 395.52 60.001486068111454" height="60.001486068111454" width="395.52"><g transform="matrix(1,0,0,1,0,0)"><svg width="395.52" viewBox="1.4499998092651367 -41.849998474121094 356.2599792480469 54.89999771118164" height="60.001486068111454" data-palette-color="#ffffff"><path d="M14.3-31.3L9.95-31.3 9.95-20.6 14.85-20.6Q17.55-20.6 18.9-22.2 20.25-23.8 20.25-26.1L20.25-26.1Q20.25-28.8 18.63-30.05 17-31.3 14.3-31.3L14.3-31.3ZM14.4-15.95L9.95-15.95 9.95-4.95 15.05-4.95Q16.5-4.95 17.78-5.3 19.05-5.65 20-6.33 20.95-7 21.5-8.05 22.05-9.1 22.05-10.5L22.05-10.5Q22.05-12.05 21.4-13.08 20.75-14.1 19.68-14.75 18.6-15.4 17.23-15.68 15.85-15.95 14.4-15.95L14.4-15.95ZM15.5 0L4.45 0 4.45-36.25 14.05-36.25Q16.7-36.25 18.85-35.73 21-35.2 22.5-34.08 24-32.95 24.83-31.18 25.65-29.4 25.65-26.85L25.65-26.85Q25.65-25.45 25.38-24.1 25.1-22.75 24.48-21.63 23.85-20.5 22.83-19.65 21.8-18.8 20.3-18.35L20.3-18.35Q21.6-18.1 22.88-17.5 24.15-16.9 25.15-15.88 26.15-14.85 26.78-13.35 27.4-11.85 27.4-9.8L27.4-9.8Q27.4-7.2 26.4-5.35 25.4-3.5 23.75-2.3 22.1-1.1 19.95-0.55 17.8 0 15.5 0L15.5 0ZM31.9 0L31.9-38.85 36.15-38.85 36.15-15.85Q37.25-18.35 39.25-19.88 41.25-21.4 44.4-21.45L44.4-21.45Q47.6-21.5 49.52-19.75 51.45-18 51.55-15.2L51.55-15.2 51.55 0 47.25 0 47.25-13.25Q47.15-14.85 46.15-15.98 45.15-17.1 43-17.2L43-17.2Q41.5-17.2 40.25-16.68 39-16.15 38.1-15.25 37.2-14.35 36.67-13.1 36.15-11.85 36.15-10.35L36.15-10.35 36.15 0 31.9 0ZM55.9-10.25L55.9-10.25Q55.9-12.55 56.77-14.58 57.65-16.6 59.15-18.13 60.65-19.65 62.62-20.55 64.59-21.45 66.84-21.45L66.84-21.45Q68.34-21.45 69.59-21.08 70.84-20.7 71.75-20.15 72.65-19.6 73.2-19 73.75-18.4 73.95-17.95L73.95-17.95 74.15-20.9 78.25-20.9 78.25 0 73.95 0 73.95-2.65Q73.7-2.25 73.15-1.7 72.59-1.15 71.72-0.68 70.84-0.2 69.65 0.15 68.45 0.5 66.9 0.5L66.9 0.5Q64.5 0.5 62.47-0.38 60.45-1.25 59-2.73 57.55-4.2 56.72-6.15 55.9-8.1 55.9-10.25ZM60.2-10.5L60.2-10.5Q60.2-9.05 60.72-7.8 61.25-6.55 62.15-5.65 63.05-4.75 64.3-4.23 65.55-3.7 67.05-3.7L67.05-3.7Q68.55-3.7 69.82-4.23 71.09-4.75 72.02-5.68 72.95-6.6 73.45-7.83 73.95-9.05 73.95-10.5L73.95-10.5Q73.95-11.95 73.45-13.18 72.95-14.4 72.02-15.3 71.09-16.2 69.82-16.73 68.55-17.25 67.05-17.25L67.05-17.25Q65.55-17.25 64.3-16.73 63.05-16.2 62.15-15.3 61.25-14.4 60.72-13.18 60.2-11.95 60.2-10.5ZM92.39 1.25L92.39 1.25Q89.44-4.35 86.87-9.83 84.29-15.3 81.44-20.9L81.44-20.9 86.09-20.9Q87.89-17.35 88.97-15.1 90.04-12.85 90.69-11.35 91.34-9.85 91.69-8.83 92.04-7.8 92.39-6.75L92.39-6.75Q92.79-7.8 93.17-8.83 93.54-9.85 94.17-11.35 94.79-12.85 95.87-15.1 96.94-17.35 98.74-20.9L98.74-20.9 103.39-20.9Q100.54-15.3 97.89-9.83 95.24-4.35 92.39 1.25ZM127.14-20.9L112.24 10.05 107.94 10.05Q108.64 8.6 109.27 7.28 109.89 5.95 110.52 4.58 111.14 3.2 111.79 1.73 112.44 0.25 113.24-1.45L113.24-1.45Q112.09-3.7 110.89-6.18 109.69-8.65 108.49-11.15 107.29-13.65 106.12-16.15 104.94-18.65 103.79-20.9L103.79-20.9 108.44-20.9Q110.24-17.35 111.42-14.9 112.59-12.45 113.37-10.68 114.14-8.9 114.62-7.65 115.09-6.4 115.44-5.35L115.44-5.35Q115.84-6.4 116.32-7.65 116.79-8.9 117.57-10.68 118.34-12.45 119.52-14.9 120.69-17.35 122.49-20.9L122.49-20.9 127.14-20.9ZM128.24-10.25L128.24-10.25Q128.24-12.55 129.11-14.58 129.99-16.6 131.49-18.13 132.99-19.65 134.96-20.55 136.94-21.45 139.19-21.45L139.19-21.45Q140.69-21.45 141.94-21.08 143.19-20.7 144.09-20.15 144.99-19.6 145.54-19 146.09-18.4 146.29-17.95L146.29-17.95 146.49-20.9 150.59-20.9 150.59 0 146.29 0 146.29-2.65Q146.04-2.25 145.49-1.7 144.94-1.15 144.06-0.68 143.19-0.2 141.99 0.15 140.79 0.5 139.24 0.5L139.24 0.5Q136.84 0.5 134.81-0.38 132.79-1.25 131.34-2.73 129.89-4.2 129.06-6.15 128.24-8.1 128.24-10.25ZM132.54-10.5L132.54-10.5Q132.54-9.05 133.06-7.8 133.59-6.55 134.49-5.65 135.39-4.75 136.64-4.23 137.89-3.7 139.39-3.7L139.39-3.7Q140.89-3.7 142.16-4.23 143.44-4.75 144.36-5.68 145.29-6.6 145.79-7.83 146.29-9.05 146.29-10.5L146.29-10.5Q146.29-11.95 145.79-13.18 145.29-14.4 144.36-15.3 143.44-16.2 142.16-16.73 140.89-17.25 139.39-17.25L139.39-17.25Q137.89-17.25 136.64-16.73 135.39-16.2 134.49-15.3 133.59-14.4 133.06-13.18 132.54-11.95 132.54-10.5ZM161.19-23.9L156.78-23.9 156.78-36.5 161.39-36.5 161.19-23.9ZM178.53-19.05L178.53-19.05 176.28-16.05Q176.23-16.1 175.93-16.3 175.63-16.5 175.16-16.7 174.68-16.9 174.06-17.07 173.43-17.25 172.78-17.25L172.78-17.25Q171.93-17.25 171.11-16.85 170.28-16.45 170.28-15.35L170.28-15.35Q170.28-14.4 170.96-13.8 171.63-13.2 172.63-12.73 173.63-12.25 174.81-11.75 175.98-11.25 176.98-10.53 177.98-9.8 178.66-8.72 179.33-7.65 179.33-6L179.33-6Q179.33-3.2 177.41-1.38 175.48 0.45 172.13 0.45L172.13 0.45Q170.18 0.45 168.31-0.23 166.43-0.9 165.28-2.2L165.28-2.2Q165.63-2.55 166.06-3.1 166.48-3.65 166.91-4.15 167.33-4.65 167.61-4.98 167.88-5.3 167.93-5.3L167.93-5.3Q167.93-5.25 168.31-5 168.68-4.75 169.28-4.48 169.88-4.2 170.63-3.98 171.38-3.75 172.13-3.75L172.13-3.75Q173.33-3.75 174.18-4.35 175.03-4.95 175.03-5.95L175.03-5.95Q175.03-6.85 174.36-7.38 173.68-7.9 172.68-8.35 171.68-8.8 170.48-9.28 169.28-9.75 168.28-10.5 167.28-11.25 166.61-12.38 165.93-13.5 165.93-15.3L165.93-15.3Q165.93-17 166.56-18.15 167.18-19.3 168.16-20.03 169.13-20.75 170.33-21.08 171.53-21.4 172.63-21.4L172.63-21.4Q174.08-21.4 175.73-20.8 177.38-20.2 178.53-19.05ZM197.33-31.15L197.33-18.1 202.28-18.1Q204.28-18.1 205.63-18.8 206.98-19.5 207.75-20.5 208.53-21.5 208.85-22.65 209.18-23.8 209.18-24.7L209.18-24.7Q209.18-25.65 208.85-26.78 208.53-27.9 207.73-28.88 206.93-29.85 205.6-30.5 204.28-31.15 202.33-31.15L202.33-31.15 197.33-31.15ZM197.33 0L191.83 0 191.83-36.25 201.73-36.25Q204.58-36.25 206.95-35.5 209.33-34.75 211.05-33.27 212.78-31.8 213.73-29.68 214.68-27.55 214.68-24.8L214.68-24.8Q214.68-22.65 214.03-20.53 213.38-18.4 211.93-16.73 210.48-15.05 208.13-14 205.78-12.95 202.43-12.95L202.43-12.95 197.33-12.95 197.33 0ZM215.08-10.5L215.08-10.5Q215.08-12.75 215.95-14.75 216.83-16.75 218.33-18.23 219.83-19.7 221.85-20.58 223.88-21.45 226.23-21.45L226.23-21.45Q228.58-21.45 230.6-20.58 232.63-19.7 234.1-18.23 235.58-16.75 236.4-14.75 237.23-12.75 237.23-10.5L237.23-10.5Q237.23-8.25 236.4-6.25 235.58-4.25 234.1-2.75 232.63-1.25 230.6-0.38 228.58 0.5 226.18 0.5L226.18 0.5Q223.88 0.5 221.85-0.3 219.83-1.1 218.33-2.55 216.83-4 215.95-6.03 215.08-8.05 215.08-10.5ZM219.33-10.45L219.33-10.45Q219.33-9.05 219.85-7.83 220.38-6.6 221.3-5.68 222.23-4.75 223.45-4.23 224.68-3.7 226.08-3.7L226.08-3.7Q227.48-3.7 228.73-4.23 229.98-4.75 230.9-5.68 231.83-6.6 232.38-7.83 232.93-9.05 232.93-10.45L232.93-10.45Q232.93-11.85 232.38-13.1 231.83-14.35 230.9-15.28 229.98-16.2 228.73-16.73 227.48-17.25 226.08-17.25L226.08-17.25Q224.68-17.25 223.45-16.73 222.23-16.2 221.3-15.28 220.38-14.35 219.85-13.1 219.33-11.85 219.33-10.45ZM254.22-21.45L253.27-15.95Q251.87-15.95 250.57-15.58 249.27-15.2 248.25-14.45 247.22-13.7 246.62-12.58 246.02-11.45 246.02-10L246.02-10 246.02 0 241.77 0 241.77-20.9 245.52-20.9Q245.62-19.35 245.7-18.07 245.77-16.8 245.87-15.55L245.87-15.55Q246.52-16.9 247.57-18 248.62-19.1 249.82-19.85 251.02-20.6 252.17-21.03 253.32-21.45 254.22-21.45L254.22-21.45ZM259.12-20.85L259.12-30.1 263.37-30.1 263.37-20.85 268.97-20.85 268.97-17.05 263.37-17.05 263.37 0 259.12 0 259.12-17.05 255.37-17.05 255.37-20.85 259.12-20.85ZM274.27-16.75L270.72-16.75 270.72-20.95 274.27-20.95 274.27-25.8Q274.27-32.35 277.34-35.52 280.42-38.7 286.07-38.85L286.07-38.85 286.07-34.75Q282.17-34.55 280.37-32.25 278.57-29.95 278.57-25.7L278.57-25.7 278.57-20.95 285.17-20.95 285.17-16.75 278.57-16.75 278.57 0 274.27 0 274.27-16.75ZM286.72-10.5L286.72-10.5Q286.72-12.75 287.59-14.75 288.47-16.75 289.97-18.23 291.47-19.7 293.49-20.58 295.52-21.45 297.87-21.45L297.87-21.45Q300.22-21.45 302.24-20.58 304.27-19.7 305.74-18.23 307.22-16.75 308.04-14.75 308.87-12.75 308.87-10.5L308.87-10.5Q308.87-8.25 308.04-6.25 307.22-4.25 305.74-2.75 304.27-1.25 302.24-0.38 300.22 0.5 297.82 0.5L297.82 0.5Q295.52 0.5 293.49-0.3 291.47-1.1 289.97-2.55 288.47-4 287.59-6.03 286.72-8.05 286.72-10.5ZM290.97-10.45L290.97-10.45Q290.97-9.05 291.49-7.83 292.02-6.6 292.94-5.68 293.87-4.75 295.09-4.23 296.32-3.7 297.72-3.7L297.72-3.7Q299.12-3.7 300.37-4.23 301.62-4.75 302.54-5.68 303.47-6.6 304.02-7.83 304.57-9.05 304.57-10.45L304.57-10.45Q304.57-11.85 304.02-13.1 303.47-14.35 302.54-15.28 301.62-16.2 300.37-16.73 299.12-17.25 297.72-17.25L297.72-17.25Q296.32-17.25 295.09-16.73 293.87-16.2 292.94-15.28 292.02-14.35 291.49-13.1 290.97-11.85 290.97-10.45ZM317.71-38.85L317.71 0 313.46 0 313.46-38.85 317.71-38.85ZM323.21-28.9L323.21-28.9Q323.21-30.1 324.09-30.9 324.96-31.7 325.96-31.7L325.96-31.7Q326.96-31.7 327.81-30.9 328.66-30.1 328.66-28.9L328.66-28.9Q328.66-27.7 327.81-26.93 326.96-26.15 325.96-26.15L325.96-26.15Q324.96-26.15 324.09-26.93 323.21-27.7 323.21-28.9ZM328.01-20.9L328.01 0 323.76 0 323.76-20.9 328.01-20.9ZM332.56-10.5L332.56-10.5Q332.56-12.75 333.43-14.75 334.31-16.75 335.81-18.23 337.31-19.7 339.33-20.58 341.36-21.45 343.71-21.45L343.71-21.45Q346.06-21.45 348.08-20.58 350.11-19.7 351.58-18.23 353.06-16.75 353.88-14.75 354.71-12.75 354.71-10.5L354.71-10.5Q354.71-8.25 353.88-6.25 353.06-4.25 351.58-2.75 350.11-1.25 348.08-0.38 346.06 0.5 343.66 0.5L343.66 0.5Q341.36 0.5 339.33-0.3 337.31-1.1 335.81-2.55 334.31-4 333.43-6.03 332.56-8.05 332.56-10.5ZM336.81-10.45L336.81-10.45Q336.81-9.05 337.33-7.83 337.86-6.6 338.78-5.68 339.71-4.75 340.93-4.23 342.16-3.7 343.56-3.7L343.56-3.7Q344.96-3.7 346.21-4.23 347.46-4.75 348.38-5.68 349.31-6.6 349.86-7.83 350.41-9.05 350.41-10.45L350.41-10.45Q350.41-11.85 349.86-13.1 349.31-14.35 348.38-15.28 347.46-16.2 346.21-16.73 344.96-17.25 343.56-17.25L343.56-17.25Q342.16-17.25 340.93-16.73 339.71-16.2 338.78-15.28 337.86-14.35 337.33-13.1 336.81-11.85 336.81-10.45Z" opacity="1" transform="matrix(1,0,0,1,0,0)" fill="#ffffff" class="undefined-text-0" data-fill-palette-color="primary" id="SvgjsPath1278" stroke-width="5" stroke="black" stroke-linejoin="round"></path></svg></g></svg></g></svg></g></svg></g><g></g></svg></g></svg></g></svg></g></mask><mask id="b5ddb6bf-155d-477e-a018-58607b4d9cea"><rect width="395.52" height="247.2" fill="white"></rect><g transform="matrix(1,0,0,1,0,93.59925696594426)" id="clone"><svg viewBox="0 0 395.52 60.001486068111454" height="60.001486068111454" width="395.52"><g><svg viewBox="0 0 395.52 60.001486068111454" height="60.001486068111454" width="395.52"><g><svg viewBox="0 0 395.52 60.001486068111454" height="60.001486068111454" width="395.52"><g><svg viewBox="0 0 395.52 60.001486068111454" height="60.001486068111454" width="395.52"><g id="SvgjsG1284"><svg viewBox="0 0 395.52 60.001486068111454" height="60.001486068111454" width="395.52" id="SvgjsSvg1283"><g><svg viewBox="0 0 395.52 60.001486068111454" height="60.001486068111454" width="395.52"><g transform="matrix(1,0,0,1,0,0)"><svg width="395.52" viewBox="1.4499998092651367 -41.849998474121094 356.2599792480469 54.89999771118164" height="60.001486068111454" data-palette-color="#ffffff"><path d="M14.3-31.3L9.95-31.3 9.95-20.6 14.85-20.6Q17.55-20.6 18.9-22.2 20.25-23.8 20.25-26.1L20.25-26.1Q20.25-28.8 18.63-30.05 17-31.3 14.3-31.3L14.3-31.3ZM14.4-15.95L9.95-15.95 9.95-4.95 15.05-4.95Q16.5-4.95 17.78-5.3 19.05-5.65 20-6.33 20.95-7 21.5-8.05 22.05-9.1 22.05-10.5L22.05-10.5Q22.05-12.05 21.4-13.08 20.75-14.1 19.68-14.75 18.6-15.4 17.23-15.68 15.85-15.95 14.4-15.95L14.4-15.95ZM15.5 0L4.45 0 4.45-36.25 14.05-36.25Q16.7-36.25 18.85-35.73 21-35.2 22.5-34.08 24-32.95 24.83-31.18 25.65-29.4 25.65-26.85L25.65-26.85Q25.65-25.45 25.38-24.1 25.1-22.75 24.48-21.63 23.85-20.5 22.83-19.65 21.8-18.8 20.3-18.35L20.3-18.35Q21.6-18.1 22.88-17.5 24.15-16.9 25.15-15.88 26.15-14.85 26.78-13.35 27.4-11.85 27.4-9.8L27.4-9.8Q27.4-7.2 26.4-5.35 25.4-3.5 23.75-2.3 22.1-1.1 19.95-0.55 17.8 0 15.5 0L15.5 0ZM31.9 0L31.9-38.85 36.15-38.85 36.15-15.85Q37.25-18.35 39.25-19.88 41.25-21.4 44.4-21.45L44.4-21.45Q47.6-21.5 49.52-19.75 51.45-18 51.55-15.2L51.55-15.2 51.55 0 47.25 0 47.25-13.25Q47.15-14.85 46.15-15.98 45.15-17.1 43-17.2L43-17.2Q41.5-17.2 40.25-16.68 39-16.15 38.1-15.25 37.2-14.35 36.67-13.1 36.15-11.85 36.15-10.35L36.15-10.35 36.15 0 31.9 0ZM55.9-10.25L55.9-10.25Q55.9-12.55 56.77-14.58 57.65-16.6 59.15-18.13 60.65-19.65 62.62-20.55 64.59-21.45 66.84-21.45L66.84-21.45Q68.34-21.45 69.59-21.08 70.84-20.7 71.75-20.15 72.65-19.6 73.2-19 73.75-18.4 73.95-17.95L73.95-17.95 74.15-20.9 78.25-20.9 78.25 0 73.95 0 73.95-2.65Q73.7-2.25 73.15-1.7 72.59-1.15 71.72-0.68 70.84-0.2 69.65 0.15 68.45 0.5 66.9 0.5L66.9 0.5Q64.5 0.5 62.47-0.38 60.45-1.25 59-2.73 57.55-4.2 56.72-6.15 55.9-8.1 55.9-10.25ZM60.2-10.5L60.2-10.5Q60.2-9.05 60.72-7.8 61.25-6.55 62.15-5.65 63.05-4.75 64.3-4.23 65.55-3.7 67.05-3.7L67.05-3.7Q68.55-3.7 69.82-4.23 71.09-4.75 72.02-5.68 72.95-6.6 73.45-7.83 73.95-9.05 73.95-10.5L73.95-10.5Q73.95-11.95 73.45-13.18 72.95-14.4 72.02-15.3 71.09-16.2 69.82-16.73 68.55-17.25 67.05-17.25L67.05-17.25Q65.55-17.25 64.3-16.73 63.05-16.2 62.15-15.3 61.25-14.4 60.72-13.18 60.2-11.95 60.2-10.5ZM92.39 1.25L92.39 1.25Q89.44-4.35 86.87-9.83 84.29-15.3 81.44-20.9L81.44-20.9 86.09-20.9Q87.89-17.35 88.97-15.1 90.04-12.85 90.69-11.35 91.34-9.85 91.69-8.83 92.04-7.8 92.39-6.75L92.39-6.75Q92.79-7.8 93.17-8.83 93.54-9.85 94.17-11.35 94.79-12.85 95.87-15.1 96.94-17.35 98.74-20.9L98.74-20.9 103.39-20.9Q100.54-15.3 97.89-9.83 95.24-4.35 92.39 1.25ZM127.14-20.9L112.24 10.05 107.94 10.05Q108.64 8.6 109.27 7.28 109.89 5.95 110.52 4.58 111.14 3.2 111.79 1.73 112.44 0.25 113.24-1.45L113.24-1.45Q112.09-3.7 110.89-6.18 109.69-8.65 108.49-11.15 107.29-13.65 106.12-16.15 104.94-18.65 103.79-20.9L103.79-20.9 108.44-20.9Q110.24-17.35 111.42-14.9 112.59-12.45 113.37-10.68 114.14-8.9 114.62-7.65 115.09-6.4 115.44-5.35L115.44-5.35Q115.84-6.4 116.32-7.65 116.79-8.9 117.57-10.68 118.34-12.45 119.52-14.9 120.69-17.35 122.49-20.9L122.49-20.9 127.14-20.9ZM128.24-10.25L128.24-10.25Q128.24-12.55 129.11-14.58 129.99-16.6 131.49-18.13 132.99-19.65 134.96-20.55 136.94-21.45 139.19-21.45L139.19-21.45Q140.69-21.45 141.94-21.08 143.19-20.7 144.09-20.15 144.99-19.6 145.54-19 146.09-18.4 146.29-17.95L146.29-17.95 146.49-20.9 150.59-20.9 150.59 0 146.29 0 146.29-2.65Q146.04-2.25 145.49-1.7 144.94-1.15 144.06-0.68 143.19-0.2 141.99 0.15 140.79 0.5 139.24 0.5L139.24 0.5Q136.84 0.5 134.81-0.38 132.79-1.25 131.34-2.73 129.89-4.2 129.06-6.15 128.24-8.1 128.24-10.25ZM132.54-10.5L132.54-10.5Q132.54-9.05 133.06-7.8 133.59-6.55 134.49-5.65 135.39-4.75 136.64-4.23 137.89-3.7 139.39-3.7L139.39-3.7Q140.89-3.7 142.16-4.23 143.44-4.75 144.36-5.68 145.29-6.6 145.79-7.83 146.29-9.05 146.29-10.5L146.29-10.5Q146.29-11.95 145.79-13.18 145.29-14.4 144.36-15.3 143.44-16.2 142.16-16.73 140.89-17.25 139.39-17.25L139.39-17.25Q137.89-17.25 136.64-16.73 135.39-16.2 134.49-15.3 133.59-14.4 133.06-13.18 132.54-11.95 132.54-10.5ZM161.19-23.9L156.78-23.9 156.78-36.5 161.39-36.5 161.19-23.9ZM178.53-19.05L178.53-19.05 176.28-16.05Q176.23-16.1 175.93-16.3 175.63-16.5 175.16-16.7 174.68-16.9 174.06-17.07 173.43-17.25 172.78-17.25L172.78-17.25Q171.93-17.25 171.11-16.85 170.28-16.45 170.28-15.35L170.28-15.35Q170.28-14.4 170.96-13.8 171.63-13.2 172.63-12.73 173.63-12.25 174.81-11.75 175.98-11.25 176.98-10.53 177.98-9.8 178.66-8.72 179.33-7.65 179.33-6L179.33-6Q179.33-3.2 177.41-1.38 175.48 0.45 172.13 0.45L172.13 0.45Q170.18 0.45 168.31-0.23 166.43-0.9 165.28-2.2L165.28-2.2Q165.63-2.55 166.06-3.1 166.48-3.65 166.91-4.15 167.33-4.65 167.61-4.98 167.88-5.3 167.93-5.3L167.93-5.3Q167.93-5.25 168.31-5 168.68-4.75 169.28-4.48 169.88-4.2 170.63-3.98 171.38-3.75 172.13-3.75L172.13-3.75Q173.33-3.75 174.18-4.35 175.03-4.95 175.03-5.95L175.03-5.95Q175.03-6.85 174.36-7.38 173.68-7.9 172.68-8.35 171.68-8.8 170.48-9.28 169.28-9.75 168.28-10.5 167.28-11.25 166.61-12.38 165.93-13.5 165.93-15.3L165.93-15.3Q165.93-17 166.56-18.15 167.18-19.3 168.16-20.03 169.13-20.75 170.33-21.08 171.53-21.4 172.63-21.4L172.63-21.4Q174.08-21.4 175.73-20.8 177.38-20.2 178.53-19.05ZM197.33-31.15L197.33-18.1 202.28-18.1Q204.28-18.1 205.63-18.8 206.98-19.5 207.75-20.5 208.53-21.5 208.85-22.65 209.18-23.8 209.18-24.7L209.18-24.7Q209.18-25.65 208.85-26.78 208.53-27.9 207.73-28.88 206.93-29.85 205.6-30.5 204.28-31.15 202.33-31.15L202.33-31.15 197.33-31.15ZM197.33 0L191.83 0 191.83-36.25 201.73-36.25Q204.58-36.25 206.95-35.5 209.33-34.75 211.05-33.27 212.78-31.8 213.73-29.68 214.68-27.55 214.68-24.8L214.68-24.8Q214.68-22.65 214.03-20.53 213.38-18.4 211.93-16.73 210.48-15.05 208.13-14 205.78-12.95 202.43-12.95L202.43-12.95 197.33-12.95 197.33 0ZM215.08-10.5L215.08-10.5Q215.08-12.75 215.95-14.75 216.83-16.75 218.33-18.23 219.83-19.7 221.85-20.58 223.88-21.45 226.23-21.45L226.23-21.45Q228.58-21.45 230.6-20.58 232.63-19.7 234.1-18.23 235.58-16.75 236.4-14.75 237.23-12.75 237.23-10.5L237.23-10.5Q237.23-8.25 236.4-6.25 235.58-4.25 234.1-2.75 232.63-1.25 230.6-0.38 228.58 0.5 226.18 0.5L226.18 0.5Q223.88 0.5 221.85-0.3 219.83-1.1 218.33-2.55 216.83-4 215.95-6.03 215.08-8.05 215.08-10.5ZM219.33-10.45L219.33-10.45Q219.33-9.05 219.85-7.83 220.38-6.6 221.3-5.68 222.23-4.75 223.45-4.23 224.68-3.7 226.08-3.7L226.08-3.7Q227.48-3.7 228.73-4.23 229.98-4.75 230.9-5.68 231.83-6.6 232.38-7.83 232.93-9.05 232.93-10.45L232.93-10.45Q232.93-11.85 232.38-13.1 231.83-14.35 230.9-15.28 229.98-16.2 228.73-16.73 227.48-17.25 226.08-17.25L226.08-17.25Q224.68-17.25 223.45-16.73 222.23-16.2 221.3-15.28 220.38-14.35 219.85-13.1 219.33-11.85 219.33-10.45ZM254.22-21.45L253.27-15.95Q251.87-15.95 250.57-15.58 249.27-15.2 248.25-14.45 247.22-13.7 246.62-12.58 246.02-11.45 246.02-10L246.02-10 246.02 0 241.77 0 241.77-20.9 245.52-20.9Q245.62-19.35 245.7-18.07 245.77-16.8 245.87-15.55L245.87-15.55Q246.52-16.9 247.57-18 248.62-19.1 249.82-19.85 251.02-20.6 252.17-21.03 253.32-21.45 254.22-21.45L254.22-21.45ZM259.12-20.85L259.12-30.1 263.37-30.1 263.37-20.85 268.97-20.85 268.97-17.05 263.37-17.05 263.37 0 259.12 0 259.12-17.05 255.37-17.05 255.37-20.85 259.12-20.85ZM274.27-16.75L270.72-16.75 270.72-20.95 274.27-20.95 274.27-25.8Q274.27-32.35 277.34-35.52 280.42-38.7 286.07-38.85L286.07-38.85 286.07-34.75Q282.17-34.55 280.37-32.25 278.57-29.95 278.57-25.7L278.57-25.7 278.57-20.95 285.17-20.95 285.17-16.75 278.57-16.75 278.57 0 274.27 0 274.27-16.75ZM286.72-10.5L286.72-10.5Q286.72-12.75 287.59-14.75 288.47-16.75 289.97-18.23 291.47-19.7 293.49-20.58 295.52-21.45 297.87-21.45L297.87-21.45Q300.22-21.45 302.24-20.58 304.27-19.7 305.74-18.23 307.22-16.75 308.04-14.75 308.87-12.75 308.87-10.5L308.87-10.5Q308.87-8.25 308.04-6.25 307.22-4.25 305.74-2.75 304.27-1.25 302.24-0.38 300.22 0.5 297.82 0.5L297.82 0.5Q295.52 0.5 293.49-0.3 291.47-1.1 289.97-2.55 288.47-4 287.59-6.03 286.72-8.05 286.72-10.5ZM290.97-10.45L290.97-10.45Q290.97-9.05 291.49-7.83 292.02-6.6 292.94-5.68 293.87-4.75 295.09-4.23 296.32-3.7 297.72-3.7L297.72-3.7Q299.12-3.7 300.37-4.23 301.62-4.75 302.54-5.68 303.47-6.6 304.02-7.83 304.57-9.05 304.57-10.45L304.57-10.45Q304.57-11.85 304.02-13.1 303.47-14.35 302.54-15.28 301.62-16.2 300.37-16.73 299.12-17.25 297.72-17.25L297.72-17.25Q296.32-17.25 295.09-16.73 293.87-16.2 292.94-15.28 292.02-14.35 291.49-13.1 290.97-11.85 290.97-10.45ZM317.71-38.85L317.71 0 313.46 0 313.46-38.85 317.71-38.85ZM323.21-28.9L323.21-28.9Q323.21-30.1 324.09-30.9 324.96-31.7 325.96-31.7L325.96-31.7Q326.96-31.7 327.81-30.9 328.66-30.1 328.66-28.9L328.66-28.9Q328.66-27.7 327.81-26.93 326.96-26.15 325.96-26.15L325.96-26.15Q324.96-26.15 324.09-26.93 323.21-27.7 323.21-28.9ZM328.01-20.9L328.01 0 323.76 0 323.76-20.9 328.01-20.9ZM332.56-10.5L332.56-10.5Q332.56-12.75 333.43-14.75 334.31-16.75 335.81-18.23 337.31-19.7 339.33-20.58 341.36-21.45 343.71-21.45L343.71-21.45Q346.06-21.45 348.08-20.58 350.11-19.7 351.58-18.23 353.06-16.75 353.88-14.75 354.71-12.75 354.71-10.5L354.71-10.5Q354.71-8.25 353.88-6.25 353.06-4.25 351.58-2.75 350.11-1.25 348.08-0.38 346.06 0.5 343.66 0.5L343.66 0.5Q341.36 0.5 339.33-0.3 337.31-1.1 335.81-2.55 334.31-4 333.43-6.03 332.56-8.05 332.56-10.5ZM336.81-10.45L336.81-10.45Q336.81-9.05 337.33-7.83 337.86-6.6 338.78-5.68 339.71-4.75 340.93-4.23 342.16-3.7 343.56-3.7L343.56-3.7Q344.96-3.7 346.21-4.23 347.46-4.75 348.38-5.68 349.31-6.6 349.86-7.83 350.41-9.05 350.41-10.45L350.41-10.45Q350.41-11.85 349.86-13.1 349.31-14.35 348.38-15.28 347.46-16.2 346.21-16.73 344.96-17.25 343.56-17.25L343.56-17.25Q342.16-17.25 340.93-16.73 339.71-16.2 338.78-15.28 337.86-14.35 337.33-13.1 336.81-11.85 336.81-10.45Z" opacity="1" transform="matrix(1,0,0,1,0,0)" fill="#ffffff" class="undefined-text-0" data-fill-palette-color="primary" id="SvgjsPath1282" stroke-width="5" stroke="black" stroke-linejoin="round"></path></svg></g></svg></g></svg></g></svg></g><g></g></svg></g></svg></g></svg></g></mask></defs></svg><rect width="395.52" height="247.2" fill="none" stroke="none" visibility="hidden"></rect></g></svg></g></svg>