<svg width="38" height="38" viewBox="0 0 38 38" fill="#00FFE7" xmlns="http://www.w3.org/2000/svg">
<path d="M3.54214 0H33.9842C34.9237 0 35.8246 0.42393 36.4889 1.17853C37.1532 1.93313 37.5264 2.95658 37.5264 4.02375C37.5264 5.09091 37.1532 6.11437 36.4889 6.86897C35.8246 7.62357 34.9237 8.0475 33.9842 8.0475H3.54214C2.60271 8.0475 1.70175 7.62357 1.03747 6.86897C0.373189 6.11437 1.05564e-07 5.09091 1.05564e-07 4.02375C1.05564e-07 2.95658 0.373189 1.93313 1.03747 1.17853C1.70175 0.42393 2.60271 0 3.54214 0ZM3.54214 14.4763H33.9842C34.4494 14.4763 34.91 14.5803 35.3397 14.7825C35.7695 14.9848 36.16 15.2811 36.4889 15.6548C36.8178 16.0284 37.0787 16.472 37.2567 16.9602C37.4347 17.4484 37.5264 17.9716 37.5264 18.5C37.5264 19.0284 37.4347 19.5516 37.2567 20.0398C37.0787 20.528 36.8178 20.9716 36.4889 21.3452C36.16 21.7189 35.7695 22.0152 35.3397 22.2175C34.91 22.4197 34.4494 22.5237 33.9842 22.5237H3.54214C3.07698 22.5237 2.61638 22.4197 2.18662 22.2175C1.75687 22.0152 1.36639 21.7189 1.03747 21.3452C0.708551 20.9716 0.447639 20.528 0.26963 20.0398C0.0916202 19.5516 3.0919e-08 19.0284 3.0919e-08 18.5C3.0919e-08 17.9716 0.0916202 17.4484 0.26963 16.9602C0.447639 16.472 0.708551 16.0284 1.03747 15.6548C1.36639 15.2811 1.75687 14.9848 2.18662 14.7825C2.61638 14.5803 3.07698 14.4763 3.54214 14.4763ZM3.54214 28.954H33.9842C34.4494 28.954 34.91 29.0581 35.3397 29.2603C35.7695 29.4625 36.16 29.7589 36.4889 30.1326C36.8178 30.5062 37.0787 30.9498 37.2567 31.438C37.4347 31.9262 37.5264 32.4494 37.5264 32.9778C37.5264 33.5062 37.4347 34.0294 37.2567 34.5176C37.0787 35.0058 36.8178 35.4494 36.4889 35.823C36.16 36.1967 35.7695 36.493 35.3397 36.6953C34.91 36.8975 34.4494 37.0015 33.9842 37.0015H3.54214C3.07698 37.0015 2.61638 36.8975 2.18662 36.6953C1.75687 36.493 1.36639 36.1967 1.03747 35.823C0.708551 35.4494 0.447639 35.0058 0.26963 34.5176C0.0916202 34.0294 0 33.5062 0 32.9778C0 32.4494 0.0916202 31.9262 0.26963 31.438C0.447639 30.9498 0.708551 30.5062 1.03747 30.1326C1.36639 29.7589 1.75687 29.4625 2.18662 29.2603C2.61638 29.0581 3.07698 28.954 3.54214 28.954Z" fill="black"/>
</svg>
